# xmcd CD database file generated by Grip 3.2.0
# 
# Track frame offsets:
#       150
#       52615
#       76282
#       93677
#       138372
#       171822
#       189567
# 
# Disc length: 2799 seconds
# 
# Revision: 2
# Processed by: cddbd v1.5.2PL0 Copyright (c) Steve Scherf et al.
# Submitted via: Grip 3.2.0
# 
DISCID=510aed07
DTITLE=Kenny Werner - Beyond the Forest of Mirkwood
DYEAR=1980
DGENRE=Jazz
TTITLE0=Beyond the Forest of Mirkwood
TTITLE1=Perilous Journey
TTITLE2=R.C.'s
TTITLE3=Bell's Bounce
TTITLE4=Conquest
TTITLE5=The Ooold Ranger
TTITLE6=The Hobbit
EXTD=YEAR: 1999
EXTT0=
EXTT1=
EXTT2=
EXTT3=
EXTT4=
EXTT5=
EXTT6=
PLAYORDER=
